<svg width="490" height="229" viewBox="0 0 490 229" fill="none" xmlns="http://www.w3.org/2000/svg">
<path d="M69.434 153.847H5.42453H0V128H92V136.471V229H69.434V153.847Z" fill="#0F8755"/>
<path d="M106.415 113.667H8.31368H0V74H141V87V229H106.415V113.667Z" fill="#0F8755"/>
<path d="M156.981 58.6043H12.2642H0V0H208V19.2065V229H156.981V58.6043Z" fill="#0F8755"/>
<path d="M418.434 153.847H354.425H349V128H441V136.471V229H418.434V153.847Z" fill="#0F8755"/>
<path d="M455.415 113.667H357.314H349V74H490V87V229H455.415V113.667Z" fill="#0F8755"/>
<path d="M277.434 153.847H213.425H208V128H300V136.471V229H277.434V153.847Z" fill="#0F8755"/>
<path d="M314.415 113.667H216.314H208V74H349V87V229H314.415V113.667Z" fill="#0F8755"/>
<path d="M277.434 153.847H213.425H208V128H300V136.471V229H277.434V153.847Z" fill="#0F8755"/>
<path d="M314.415 113.667H216.314H208V74H349V87V229H314.415V113.667Z" fill="#0F8755"/>
</svg>
