<svg xmlns="http://www.w3.org/2000/svg" data-name="Layer 1" width="795.10482" height="638" viewBox="0 0 795.10482 638" xmlns:xlink="http://www.w3.org/1999/xlink"><path d="M681.71836,323.25692a5.09028,5.09028,0,0,0,3.68913-8.8227c-.12836-.51014-.22044-.8765-.34879-1.38664q.06888-.16659.13859-.33286c4.6863-11.17449,20.5687-11.09739,25.21513.09369,4.12406,9.93267,9.37471,19.88226,10.66755,30.3844a40.44011,40.44011,0,0,1-.70989,13.908,162.132,162.132,0,0,0,14.74848-67.33847,156.48723,156.48723,0,0,0-.97069-17.45764q-.80412-7.128-2.23118-14.15449A164.01034,164.01034,0,0,0,699.392,188.63859a43.64774,43.64774,0,0,1-18.153-18.83392,33.29411,33.29411,0,0,1-3.02794-9.09827c.88371.11592,3.3322-13.34322,2.66567-14.169,1.23157-1.86885,3.43587-2.79784,4.78094-4.62148,6.68954-9.06961,15.906-7.486,20.71739,4.83888,10.27825,5.18745,10.37774,13.79049,4.071,22.06463-4.01234,5.26406-4.56364,12.38693-8.08418,18.02253.36227.46365.739.91282,1.10112,1.37647a165.06963,165.06963,0,0,1,17.22906,27.29492c-1.36865-10.6909.652-23.57059,4.09674-31.873,3.9213-9.45971,11.27119-17.4267,17.74364-25.6046,7.77447-9.82292,23.71674-5.536,25.08643,6.91609q.01989.18086.03883.36158-1.44206.8135-2.8232,1.727a6.90459,6.90459,0,0,0,2.78379,12.56506l.1408.0217a68.70125,68.70125,0,0,1-1.81092,10.27183c8.30335,32.11122-9.623,43.80679-35.21939,44.33217-.56505.28972-1.11567.57944-1.6807.8548a168.48712,168.48712,0,0,1,9.0693,42.68054,159.80436,159.80436,0,0,1-.11592,25.80246l.04349-.30421a42.227,42.227,0,0,1,14.41527-24.38271c11.09331-9.11275,26.76607-12.46849,38.73379-19.79336,5.76091-3.526,13.14312,1.03057,12.13769,7.70959q-.02408.1599-.04894.31988a46.37722,46.37722,0,0,0-5.201,2.50624q-1.44205.81369-2.8232,1.727a6.90468,6.90468,0,0,0,2.7838,12.56519l.14091.02163c.10137.01449.18834.029.2896.0436a68.7599,68.7599,0,0,1-12.6476,19.80451c-5.19187,28.03184-27.491,30.69143-51.34422,22.52828h-.01453a168.43679,168.43679,0,0,1-11.31491,33.03181H682.73124c-.145-.4491-.27531-.91275-.40576-1.36192a45.92615,45.92615,0,0,0,11.18458-.66624c-2.999-3.68-5.99787-7.38886-8.99686-11.06867a2.51118,2.51118,0,0,1-.18835-.21734c-1.52118-1.88328-3.05689-3.75226-4.57807-5.6356l-.00081-.00229a67.27051,67.27051,0,0,1,1.97111-17.13665Z" transform="translate(-202.44759 -131)" fill="#f2f2f2"/><path d="M807.96971,248.64376c-7.1212-25.96309,50.31464-48.22694,65.39719-27.31883,2.09728-2.97249,9.84792-4.778,13.40412-3.86619s6.547,3.19144,9.46491,5.39814c4.01213,3.082,8.17006,6.27346,10.632,10.705,2.48029,4.41327,2.86319,10.43151-.47407,14.2612-2.64436,3.04552-10.44977,5.01512-14.42538,5.81755-2.77192.56533-5.10629,1.02125-7.11229,1.3495a13.59822,13.59822,0,0,1-2.37088-8.99073,11.03673,11.03673,0,0,0-4.81443,8.09715c-.05476.67475,22.413,83.34226,22.413,83.34226a49.00506,49.00506,0,0,1-8.48016,3.81143A106.63629,106.63629,0,0,1,878.382,312.4361a92.33733,92.33733,0,0,0,.25534,20.51642,112.89125,112.89125,0,0,0,1.9331,11.3615c-26.69872,5.76289-66.85611,3.8663-84.327-20.644q-.00465-.1521-.0088-.30442a4.17075,4.17075,0,0,0-8.05691-1.45447c-.42388,1.08138-.814,2.01738-1.16211,2.76189C781.92759,306.47263,788.51106,285.40913,807.96971,248.64376Z" transform="translate(-202.44759 -131)" fill="#2f2e41"/><path d="M762.53688,683.92314v.85026A3.60864,3.60864,0,0,1,762.53688,683.92314Z" transform="translate(-202.44759 -131)" fill="#2f2e41"/><path d="M788.683,536.98967a14.5199,14.5199,0,0,1,2.06844-.40175Q789.54893,536.78388,788.683,536.98967Z" transform="translate(-202.44759 -131)" fill="#2f2e41"/><path d="M788.07792,537.14387c.18348-.05145.38773-.1029.605-.1542C788.48052,537.04237,788.28585,537.08114,788.07792,537.14387Z" transform="translate(-202.44759 -131)" fill="#2f2e41"/><path d="M981.24639,769H883.38265l-15.583-71.27619S862.32191,730.72931,855.6096,769H762.53688V684.7734c.20439,1.349,1.74962-1.10371,4.12874-6.24628,3.62186-7.8242,9.15685-21.89464,14.749-38.22982,3.99795-11.65858,8.02859-24.48634,11.397-37.028h.00818q1.3245-4.9422,2.51-9.79453c1.54523-6.34439,2.8697-12.50889,3.8753-18.29734,2.18291-12.468,2.90238-23.17828,1.22636-30.144-1.38988-5.79663-4.43124-8.99333-9.68006-8.44557,2.81246-.466,6.933-.90749,12.01018-1.32447.91568-.0736,1.86405-.14715,2.84515-.22894,37.87008-2.86151,119.12069-4.5048,119.12069-4.5048l24.887,44.566,31.51751,56.45359S980.27348,707.28127,981.24639,769Z" transform="translate(-202.44759 -131)" fill="#2f2e41"/><path d="M876.79029,337.90738l-57.33694-12.16254-11.38449,22.91551L769.731,370.856s24.71232,101.04281,24.57134,115.25391c-.35794,36.07984-58.0874,116.95994-14.48242,110.73783s52.46237-32.28453,66.46075-28.16356c57.75226,17.00167,126.389,15.19937,103.03305-8.15654S921.21107,365,921.21107,365l-26-8Z" transform="translate(-202.44759 -131)" fill="#e6e6e6"/><path d="M768.64674,704.85174a13.76344,13.76344,0,0,0-1.4174-19.1446,13.20458,13.20458,0,0,0-1.76806-1.28008l9.58675-47.04951-22.16236-13.26427-6.16438,65.87184a13.72527,13.72527,0,0,0,3.16347,16.45515,13.135,13.135,0,0,0,18.5293-1.31281Q768.53228,704.9912,768.64674,704.85174Z" transform="translate(-202.44759 -131)" fill="#a0616a"/><path d="M837.45947,456.84985c-.139-1.51254-2.06849-2.19928-4.742-3.14769a29.32546,29.32546,0,0,1-7.57889-3.58917c-5.91929-4.2759-3.58917-8.748-.36792-14.92888.62955-1.20186,1.2836-2.45272,1.89678-3.75269,1.82318-3.8508-1.07921-19.73627-8.64177-47.22314-2.33012-8.46188-2.32194-14.43836-3.93254-18.40362-1.60246-3.96522-4.81553-5.91924-13.57177-6.328a40.03286,40.03286,0,0,0-28.81953,10.24424c-.21252.188-.43328.39242-.64586.58863q-.60091.56415-1.17731,1.15281a40.00338,40.00338,0,0,0-11.6259,27.50319l-.04091,1.7578-1.80681,83.98129-5.07716,73.69623L744.32947,659.9191l5.18345.2535,20.68463,1.0301,2.51.12265,5.95192-24.96872,7.162-30.04588,2.63262-11.03727,8.16757-34.24,3.80987-16,2.33012-9.77.94837-3.98977,4.62745-19.39285c.10629-.40879,10.75113-42.40762,23.02294-49.43061C835.93874,459.834,837.59026,458.31329,837.45947,456.84985Z" transform="translate(-202.44759 -131)" fill="#e6e6e6"/><path d="M975.14861,704.35149a13.76342,13.76342,0,0,1-.64691-19.18609,13.20419,13.20419,0,0,1,1.62035-1.46258l-14.58436-45.74776,20.6096-15.56777,13.20328,64.8288a13.72526,13.72526,0,0,1-1.3779,16.69973,13.135,13.135,0,0,1-18.56312.6848Q975.27739,704.47785,975.14861,704.35149Z" transform="translate(-202.44759 -131)" fill="#a0616a"/><path d="M985.23067,605.08371,963.67675,484.16159l-8.35395-64.39344-.2533-1.91506-2.42986-18.73417a40.11791,40.11791,0,0,0-15.8195-27.11449c-.22083-.16906-.44641-.33146-.672-.49388q-1.54266-1.1106-3.15247-2.058a40.044,40.044,0,0,0-26.6309-5.05841c-17.32572,2.69835-11.93336,9.1594-14.74355,26.46842-4.566,28.14391-5.75123,44.24526-3.52465,47.88321.75007,1.225,1.53834,2.397,2.28974,3.5222,3.86844,5.8072,6.66513,9.99663,1.23616,14.89292a29.61033,29.61033,0,0,1-7.1482,4.37385c-2.55173,1.23553-4.39886,2.12205-4.37411,3.64089.02875,1.47137,1.83246,2.80009,6.66227,4.90712,5.85262,2.56127,12.13875,12.24478,17.28742,22.13686a244.34219,244.34219,0,0,1,10.91354,24.53956l44.25287,124.45952,7.21791,20.29735,2.48972-.39371,20.44706-3.24171,5.12762-.81166Z" transform="translate(-202.44759 -131)" fill="#e6e6e6"/><circle cx="852.59986" cy="278.10705" r="46.77833" transform="translate(186.6642 914.86278) rotate(-76.94661)" fill="#a0616a"/><path d="M782.43817,252.29112c-7.1212-25.96308,50.31464-48.22693,65.39719-27.31882,2.09728-2.9725,9.84792-4.778,13.40412-3.8662s6.547,3.19144,9.46491,5.39814c4.01212,3.082,8.17006,6.27347,10.632,10.705,2.48029,4.41328,2.86319,10.43152-.47407,14.2612-2.64436,3.04552-10.44977,5.01513-14.42538,5.81755-2.77192.56534-5.10629,1.02126-7.11229,1.34951a13.59819,13.59819,0,0,1-2.37088-8.99074,11.03673,11.03673,0,0,0-4.81443,8.09715c-.05476.67475,22.413,83.34226,22.413,83.34226a49.00428,49.00428,0,0,1-8.48016,3.81144,106.63649,106.63649,0,0,1-13.22169-28.81415,92.33733,92.33733,0,0,0,.25534,20.51642,112.89125,112.89125,0,0,0,1.9331,11.3615c-26.69872,5.76289-66.85611,3.86631-84.327-20.644q-.00465-.15209-.0088-.30442a4.17075,4.17075,0,0,0-8.05691-1.45447c-.42388,1.08138-.814,2.01739-1.16211,2.76189C756.396,310.12,762.97952,289.05649,782.43817,252.29112Z" transform="translate(-202.44759 -131)" fill="#2f2e41"/><path d="M799.93713,227.83548Z" transform="translate(-202.44759 -131)" fill="#2f2e41"/><path d="M539.70378,394.25692a5.09028,5.09028,0,0,1-3.68913-8.8227c.12835-.51014.22043-.8765.34879-1.38664q-.06889-.16659-.13859-.33286c-4.68631-11.17449-20.5687-11.09739-25.21514.09369-4.12406,9.93267-9.37471,19.88226-10.66754,30.3844a40.43986,40.43986,0,0,0,.70989,13.908,162.13185,162.13185,0,0,1-14.74848-67.33847,156.48961,156.48961,0,0,1,.97068-17.45764q.80413-7.128,2.23119-14.15449a164.01022,164.01022,0,0,1,32.52468-69.51166,43.64785,43.64785,0,0,0,18.153-18.83392,33.29478,33.29478,0,0,0,3.02794-9.09827c-.88372.11592-3.33221-13.34322-2.66567-14.169-1.23157-1.86885-3.43587-2.79784-4.78094-4.62148-6.68954-9.06961-15.906-7.486-20.7174,4.83888-10.27825,5.18745-10.37774,13.79049-4.07105,22.06463,4.01234,5.26406,4.56364,12.38693,8.08419,18.02253-.36227.46365-.739.91282-1.10113,1.37647a165.06958,165.06958,0,0,0-17.229,27.29492c1.36864-10.6909-.652-23.57059-4.09675-31.873-3.9213-9.45971-11.27118-17.4267-17.74364-25.6046-7.77447-9.82292-23.71674-5.536-25.08643,6.91609q-.01988.18086-.03883.36158,1.44205.8135,2.8232,1.727a6.90459,6.90459,0,0,1-2.78379,12.56506l-.14079.0217a68.7,68.7,0,0,0,1.81092,10.27183c-8.30336,32.11122,9.623,43.80679,35.21939,44.33217.565.28972,1.11566.57944,1.6807.8548a168.48712,168.48712,0,0,0-9.0693,42.68054,159.80436,159.80436,0,0,0,.11591,25.80246l-.04348-.30421a42.227,42.227,0,0,0-14.41528-24.38271c-11.0933-9.11275-26.76607-12.46849-38.73378-19.79336-5.76092-3.526-13.14312,1.03057-12.1377,7.70959q.02408.1599.04895.31988a46.37792,46.37792,0,0,1,5.201,2.50624q1.44205.81369,2.82321,1.727a6.90468,6.90468,0,0,1-2.7838,12.56519l-.14091.02163c-.10138.01449-.18835.029-.28961.0436a68.75993,68.75993,0,0,0,12.64761,19.80451c5.19187,28.03184,27.491,30.69143,51.34421,22.52828h.01454a168.43742,168.43742,0,0,0,11.3149,33.03181h40.42041c.145-.4491.27532-.91275.40576-1.36192a45.9261,45.9261,0,0,1-11.18457-.66624c2.999-3.68,5.99787-7.38886,8.99686-11.06867a2.51291,2.51291,0,0,0,.18835-.21734c1.52117-1.88328,3.05689-3.75226,4.57807-5.6356l.00081-.00229a67.27051,67.27051,0,0,0-1.97111-17.13665Z" transform="translate(-202.44759 -131)" fill="#f2f2f2"/><path d="M718.99282,643.27328s-1.50436,7.61981-3.73632,19.17215C709.2964,693.31707,698.14466,752.256,696.59125,769H605.09644c-1.0056-21.92737-1.9622-37.89463-1.9622-37.89463L551.83141,769H397.40783c8.8789-22.99021,25.80266-50.24818,44.57421-76.55774,16.92381-23.70149,35.34375-46.62633,50.75507-64.95635.69492-.84208,1.398-1.66783,2.08481-2.48541,18.91051-22.38521,32.78474-37.31414,32.78474-37.31414l23.448,6.81042Z" transform="translate(-202.44759 -131)" fill="#2f2e41"/><path d="M637.19242,262.48391l-50.92214,3.2853L552.855,308.5656l-55.59886,42.36786,35.27626,107.36115s-1.73714,54.868-7.674,61.76194-15.79271-1.31929-5.93682,13.46456,9.8559,31.28962,9.8559,31.28962-56.16113,46.73624-36.13829,59.05611,60.466-19.7118,81.15513-.82132,158.12788,56.93041,158.67172,30.389-34.31769-233.78782-34.31769-233.78782l8.0353-99.67007L660.18952,288.7663Z" transform="translate(-202.44759 -131)" fill="#46efa8"/><path d="M556.591,681.25207l-17.26089-51.96018-31.05837,5.71905,20.20395,54.2862a18.32876,18.32876,0,1,0,28.11531-8.04507Z" transform="translate(-202.44759 -131)" fill="#ffb6b6"/><path d="M510.66159,342.57153l-.81881.34113a50.7672,50.7672,0,0,0-30.16117,36.50486c-4.40235,21.071-8.73383,51.54784-5.30925,80.0857,6.04815,50.40161-6.3462,72.57827,1.71809,88.70678s10.08029,10.0803,8.06422,22.17673-12.09643,2.01607-2.01607,18.14459S498.26711,600.62775,494.235,608.692s-10.08029,8.06422-2.01607,18.14459,8.06422,14.11244,10.08029,18.14458,8.06423,34.2731,8.06423,34.2731,32.257-10.08037,50.40154-6.04822c0,0-16.12858-28.22488-12.09643-34.2731s10.08036-8.06429,4.03214-14.11244-16.12858-4.03214-6.04822-10.08036,1.83683-128.85585,1.83683-128.85585Z" transform="translate(-202.44759 -131)" fill="#46efa8"/><path d="M777.95958,620.96923,766.1778,567.49972l29.6058-10.99208,10.445,56.97449a18.32876,18.32876,0,1,1-28.269,7.4871Z" transform="translate(-202.44759 -131)" fill="#ffb6b6"/><path d="M658.08762,298.13261l.878-.12629a50.76717,50.76717,0,0,1,44.6,15.91044c14.57139,15.84429,33.89847,39.80393,45.57065,66.06983,20.61471,46.389,28.5076,67.50211,29.84,85.48505s-3.49642,13.82027,4.42961,23.178,11.42247-4.46267,11.02317,14.55267-7.659,18.64917-.06619,23.51109S807.1507,528.47809,805.386,541.266s.3,16.25124.63315,20.747,10.62393,33.568,10.62393,33.568-32.86872,7.85981-46.38894,20.61462c0,0-.6-32.50253-7.16052-35.63279s-12.788-1.76476-10.69006-10.05692,11.78865-11.72249.03308-11.75557-82.39122-151.71324-82.39122-151.71324Z" transform="translate(-202.44759 -131)" fill="#46efa8"/><circle cx="406.35126" cy="72.59881" r="53.60692" fill="#ffb6b6"/><path d="M671.2831,186.17986c-5.50615,2.51069-9.07382,20.69444-13.4016,16.46709s-4.03893-9.72859-9.87364-11.28869c-4.71184-1.26523-9.78253.18078-14.08037,2.46133-.7674.40241-1.51139.83995-2.2365,1.27509-.47865-.31981-.955-.62073-1.46639-.89836a17.03314,17.03314,0,0,0-12.5366-1.41014,16.7126,16.7126,0,0,1,8.2586,6.0872c-1.4384.96394-2.89543,1.93037-4.38568,2.78668-12.45015,7.18478-30.16623-8.43822-43.27124-14.3074,8.2086,15.404,4.16668,21.78351-2.96071,37.71453l-.24613.90714c.40491-3.99277-11.95042-6.96835-11.234-1.34773.5087,3.99066,3.96221,12.86083,5.89652,16.38423-13.77842-15.93173-23.19417-35.42778-21.20733-55.5396.4325-4.22486.30214-8.68257,2.48127-12.3495,2.18143-3.648,6.7293-6.208,10.75272-4.81688a35.542,35.542,0,0,1,53.50673-32.52446c5.14479,3.01886,9.43985,7.28849,14.15517,10.97139,4.71543,3.68287,10.15119,6.89311,16.13038,7.19715,3.79317.18294,7.921-.74312,11.17973,1.22145,3.77491,2.27961,4.42131,7.05235,4.98779,11.64492a17.01391,17.01391,0,0,0-9.16691,3.815A16.648,16.648,0,0,1,662.58738,172.78a1.03627,1.03627,0,0,1,.16413.09331C664.74726,180.46328,664.54281,182.14592,671.2831,186.17986Z" transform="translate(-202.44759 -131)" fill="#2f2e41"/><path d="M362.61571,247.46819c-.82774,1.929-26.35019,1.72225-27.51911,3.43989-9.01249,13.26081,23.47581,69.68221,14.46332,82.96023l-1.25552,1.49634a59.32889,59.32889,0,0,0,8.44488-4.76428c.24081-5.435.48163-10.88727.73956-16.32225a44.86194,44.86194,0,0,1,6.467,11.36881c2.09838-1.47913,3.81969-4.22113,12.8136-9.61443a56.40551,56.40551,0,0,1,12.46372-10.25983Z" transform="translate(-202.44759 -131)" fill="#2f2e41"/><path d="M381.149,356.14782a21.13821,21.13821,0,0,0-32.02449,12.50373l-38.785,101.05785-66.667-37.84857a20.63974,20.63974,0,1,0-12.87714,20.5288c14.03951,14.98421,74.90581,76.41932,100.104,52.41514,21.18035-20.17665,51.74614-98.37412,59.10387-125.37729A21.1404,21.1404,0,0,0,381.149,356.14782Z" transform="translate(-202.44759 -131)" fill="#ffb6b6"/><polygon points="105.874 378.039 118.113 433.359 207.611 441.455 215.836 393.286 105.874 378.039" fill="#ffb6b6"/><path d="M445.03158,650.90127c-.04087.793-.08993,1.57792-.14716,2.371-.85845,11.46237-1.83955,24.68259-2.90238,39.17-1.676,22.99021-3.5483,49.169-5.4369,76.55774H248.82174l64.335-193.37287,2.16659-29.4,1.23455.02455,97.692,1.627,1.78231.03269,3.00049,25.23858a111.58269,111.58269,0,0,1,25.99888,77.75137Z" transform="translate(-202.44759 -131)" fill="#2f2e41"/><path d="M364.18024,329.338l44.54757-2.29482L429.419,359.73771s38.931,6.50876,36.23243,52.38408-47.36737,86.13113-47.36737,86.13113l1.90945-6.54638-3.31624,9.47565.42526,5.32062,4.524,5.63472.46576,5.82734-4.00821,9.21989,5.45074,8.828L309.13561,524.90992,304.945,509.6442l6.11318-8.19755-3.41463-10.69229,5.13344-10.28424,2.67676-2.23113s-29.28486-43.99638,4.33327-77.13382l13.49274-22.93766L348.377,359.74819Z" transform="translate(-202.44759 -131)" fill="#46efa8"/><circle cx="172.81974" cy="136.7949" r="42.24343" fill="#ffb6b6"/><path d="M407.35148,328.64959a20.34476,20.34476,0,0,1-6.811-11.17964,43.7118,43.7118,0,0,0,.60205,15.961c-2.28756,1.71994-4.50625,3.35391-6.60464,4.833a44.8619,44.8619,0,0,0-6.467-11.36881c-.25793,5.435-.49875,10.88728-.73957,16.32225a59.32889,59.32889,0,0,1-8.44488,4.76428l1.25553-1.49634c9.01249-13.278-14.31-37.71837-5.29746-50.97918,2.52837-3.71514-8.89208-33.07449-17.595-34.39889-7.73975-1.16955-7.41295,1.06636-14.91189,2.70033a37.52442,37.52442,0,0,0-3.59473-9.305,30.74437,30.74437,0,0,1-.29236,9.80371c-2.66589.10319-4.76335-1.59549-7.60212-2.02953-18.11107-2.76908-16.27071-22.35917-11.23129-28.56825,5.05664-6.19176,21.84332-8.04932,29.58306-10.06174.70514-.68791,2.30467-.25792,3.00991-.91151,14.83279-13.5747,34.67071-15.82279,52.523-9.80617,19.03809,6.41626,30.908,18.83459,37.00012,37.97887l1.74728,15.32033c1.56756,4.926-.40438,27.84617-1.74728,32.83811C436.51309,318.471,425.39583,308.78421,407.35148,328.64959Z" transform="translate(-202.44759 -131)" fill="#2f2e41"/><path d="M468.94617,528.788l-1.663-129.524a20.90809,20.90809,0,0,0-20.90555-20.57777h-.00006a20.90812,20.90812,0,0,0-20.8787,22.01686l5.8522,134.49073.1111,81.87149a18.24534,18.24534,0,1,0,22.40038,6.82214Z" transform="translate(-202.44759 -131)" fill="#ffb6b6"/></svg>